<?xml version="1.0" encoding="utf-8"?>
<!-- Generator: Adobe Illustrator 23.0.1, SVG Export Plug-In . SVG Version: 6.00 Build 0)  -->
<svg version="1.1" id="Lager_1" xmlns="http://www.w3.org/2000/svg" xmlns:xlink="http://www.w3.org/1999/xlink" x="0px" y="0px"
	 viewBox="0 0 163.98 224.05" style="enable-background:new 0 0 163.98 224.05;" xml:space="preserve">
<style type="text/css">
	.st0{fill:#3B4850;}
	.st1{fill:#EC6611;}
</style>
<polygon class="st0" points="142.24,94.7 142.24,41.77 162.23,41.77 162.24,201.81 142.24,201.81 142.24,201.6 142.23,201.6 
	142.23,94.7 "/>
<polygon class="st0" points="114.24,94.7 114.24,41.81 134.23,41.81 134.23,94.7 134.23,201.6 114.23,201.6 114.23,94.7 "/>
<polygon class="st0" points="106.23,41.81 106.23,94.7 106.23,201.6 86.23,201.6 86.23,94.7 86.23,41.81 "/>
<path class="st1" d="M68.23,1.81c10,0,10,10,10,10v82.86v117.14c0,0,0,10-10,10s-10-10-10-10V108.96V11.81
	C58.23,11.81,58.23,1.81,68.23,1.81z"/>
<path class="st1" d="M40.23,21.81c10,0,10,10,10,10v82.86v87.14c0,0,0,10-10,10s-10-10-10-10v-72.86V31.81
	C30.23,31.81,30.23,21.81,40.23,21.81z"/>
<path class="st1" d="M12.23,41.81c10,0,10,10,10,10v82.86v57.14c0,0,0,10-10,10s-10-10-10-10v-42.86V51.81
	C2.23,51.81,2.23,41.81,12.23,41.81z"/>
</svg>
