<?xml version="1.0" encoding="utf-8"?>
<!-- Generator: Adobe Illustrator 16.0.0, SVG Export Plug-In . SVG Version: 6.00 Build 0)  -->
<!DOCTYPE svg PUBLIC "-//W3C//DTD SVG 1.1//EN" "http://www.w3.org/Graphics/SVG/1.1/DTD/svg11.dtd">
<svg version="1.1" xmlns="http://www.w3.org/2000/svg" xmlns:xlink="http://www.w3.org/1999/xlink" x="0px" y="0px"
	 width="841.89px" height="553.471px" viewBox="0 0 841.89 553.471" enable-background="new 0 0 841.89 553.471"
	 xml:space="preserve">
<g id="Layer_10" display="none">
	<path display="inline" opacity="0.7" fill="#52C8EB" d="M723.421,291.134l-76.896,1.424c0,0-32.039,4.509-31.565,49.84
		c0.475,45.332,31.565,55.893,31.565,55.893h82.236V292.915h-2.137v-1.78H723.421z"/>
	<path display="inline" opacity="0.7" fill="#E9E612" d="M436.128,291.134c0,0-18.512,4.628-18.512,51.977
		c0,47.348,18.512,55.18,18.512,55.18h150.945c0,0,22.072,0,22.072-56.248s-24.565-50.908-24.565-50.908H436.128z"/>
	<path display="inline" opacity="0.7" fill="#E9E612" d="M726.98,179.351c0,0,14.595-2.492,14.595-39.873
		S726.98,97.501,726.98,97.501l-183.93-38.09c0,0-22.55,11.351-22.55,61.911s22.55,58.029,22.55,58.029H726.98z"/>
	<path display="inline" opacity="0.7" fill="#2DB34A" d="M364.572,23.422l-10.914,67.64c0,0,22.233,40.678,57.193,10.681
		c51.032-43.788,17.919-65.387,17.919-65.387L364.572,23.422z"/>
	<path display="inline" opacity="0.7" fill="#F8951D" d="M409.429,182.199h212.887c0,0,3.206,27.769-101.459,27.769
		s-111.428-9.613-111.428-9.613V182.199z"/>
	<path display="inline" opacity="0.7" fill="#E9E612" d="M138.809,375.863v13.29c0,0-3.264,12.341,106.859,12.341
		c125.668,0.299,107.274-25.631,107.274-25.631H138.809z"/>
	<path display="inline" opacity="0.7" fill="#E9E612" d="M349.387,91.062c0,0,17.313,10.926,17.313,41.305
		c0,30.378-17.313,48.408-17.313,48.408H135.545v-11.392h-9.849c0,0-19.114-18.028-19.114-53.628s19.114-55.414,19.114-55.414
		l72.268,14.346L349.387,91.062z"/>
	<rect x="71.94" y="180.775" display="inline" opacity="0.7" fill="#B469AB" width="281.002" height="195.088"/>
	<rect x="726.98" y="185.046" display="inline" opacity="0.7" fill="#EE2424" width="63.367" height="99.948"/>
	<path display="inline" opacity="0.7" fill="#52C8EB" d="M64.047,47.116l-10.914,67.64c0,0,22.233,40.678,57.193,10.681
		c51.032-43.788,17.919-65.387,17.919-65.387L64.047,47.116z"/>
</g>
<g id="Layer_18">
	<path opacity="0.7" fill="#52C8EB" d="M723.421,291.134l-76.896,1.424c0,0-32.039,4.509-31.565,49.84
		c0.475,45.332,31.565,55.893,31.565,55.893h82.236V292.915h-2.137v-1.78H723.421z"/>
	<path opacity="0.7" fill="#2DB34A" d="M364.572,23.422l-10.914,67.64c0,0,22.233,40.678,57.193,10.681
		c51.032-43.788,17.919-65.387,17.919-65.387L364.572,23.422z"/>
	<path opacity="0.7" fill="#F8951D" d="M409.429,182.199h212.887c0,0,3.206,27.769-101.459,27.769s-111.428-9.613-111.428-9.613
		V182.199z"/>
	<rect x="71.94" y="180.775" opacity="0.7" fill="#B469AB" width="281.002" height="195.088"/>
	<rect x="726.98" y="185.046" opacity="0.7" fill="#EE2424" width="63.367" height="99.948"/>
</g>
<g id="Layer_13">
	<rect x="439.229" y="294.053" fill="#F1EA31" stroke="#000000" stroke-miterlimit="10" width="20.68" height="20.681"/>
	<rect x="320.229" y="378.813" fill="#F1EA31" stroke="#000000" stroke-miterlimit="10" width="20.68" height="20.681"/>
	<rect x="146.328" y="378.813" fill="#F1EA31" stroke="#000000" stroke-miterlimit="10" width="20.68" height="20.681"/>
	<rect x="51.26" y="408.241" fill="#F1EA31" stroke="#000000" stroke-miterlimit="10" width="20.68" height="20.681"/>
	<rect x="232.994" y="378.813" fill="#F1EA31" stroke="#000000" stroke-miterlimit="10" width="20.68" height="20.681"/>
	<rect x="277.327" y="378.813" fill="#F1EA31" stroke="#000000" stroke-miterlimit="10" width="20.68" height="20.681"/>
	<rect x="189.327" y="378.813" fill="#F1EA31" stroke="#000000" stroke-miterlimit="10" width="20.68" height="20.681"/>
	<rect x="355.896" y="217.086" fill="#F1EA31" stroke="#000000" stroke-miterlimit="10" width="20.68" height="20.681"/>
	<rect x="355.896" y="186.098" fill="#F1EA31" stroke="#000000" stroke-miterlimit="10" width="20.68" height="20.681"/>
	<rect x="42.794" y="456.764" fill="#F1EA31" stroke="#000000" stroke-miterlimit="10" width="20.68" height="20.681"/>
	<rect x="589.229" y="294.053" fill="#F1EA31" stroke="#000000" stroke-miterlimit="10" width="20.68" height="20.681"/>
	<rect x="554.229" y="294.053" fill="#F1EA31" stroke="#000000" stroke-miterlimit="10" width="20.68" height="20.681"/>
	<rect x="516.896" y="294.053" fill="#F1EA31" stroke="#000000" stroke-miterlimit="10" width="20.68" height="20.681"/>
	<rect x="478.062" y="294.053" fill="#F1EA31" stroke="#000000" stroke-miterlimit="10" width="20.68" height="20.681"/>
	<rect x="437.776" y="372.167" fill="#F1EA31" stroke="#000000" stroke-miterlimit="10" width="20.68" height="20.681"/>
	<rect x="586.776" y="372.167" fill="#F1EA31" stroke="#000000" stroke-miterlimit="10" width="20.68" height="20.681"/>
	<rect x="551.776" y="372.167" fill="#F1EA31" stroke="#000000" stroke-miterlimit="10" width="20.68" height="20.681"/>
	<rect x="514.443" y="372.167" fill="#F1EA31" stroke="#000000" stroke-miterlimit="10" width="20.68" height="20.681"/>
	<rect x="475.61" y="372.167" fill="#F1EA31" stroke="#000000" stroke-miterlimit="10" width="20.68" height="20.681"/>
	<rect x="573.562" y="154.973" fill="#D52027" stroke="#000000" stroke-miterlimit="10" width="31.334" height="20.513"/>
	<rect x="671.275" y="129.05" fill="#D52027" stroke="#000000" stroke-miterlimit="10" width="20.514" height="31.334"/>
	<rect x="149.062" y="138.202" fill="#D52027" stroke="#000000" stroke-miterlimit="10" width="31.334" height="20.513"/>
	<rect x="42.794" y="514.868" fill="#D52027" stroke="#000000" stroke-miterlimit="10" width="31.334" height="20.513"/>
	<g>
		<rect x="42.794" y="485.591" fill="#F1EA31" stroke="#000000" stroke-miterlimit="10" width="20.68" height="20.681"/>
		<line fill="none" stroke="#000000" stroke-miterlimit="10" x1="42.794" y1="485.591" x2="63.336" y2="506.133"/>
		<line fill="none" stroke="#000000" stroke-miterlimit="10" x1="42.794" y1="506.272" x2="63.474" y2="485.591"/>
	</g>
	<g>
		<rect x="304.909" y="153.394" fill="#F1EA31" stroke="#000000" stroke-miterlimit="10" width="20.68" height="20.681"/>
		<line fill="none" stroke="#000000" stroke-miterlimit="10" x1="304.909" y1="153.394" x2="325.451" y2="173.936"/>
		<line fill="none" stroke="#000000" stroke-miterlimit="10" x1="304.909" y1="174.075" x2="325.588" y2="153.394"/>
	</g>
	<g>
		<rect x="636.185" y="102.435" fill="#F1EA31" stroke="#000000" stroke-miterlimit="10" width="20.68" height="20.681"/>
		<line fill="none" stroke="#000000" stroke-miterlimit="10" x1="636.185" y1="102.435" x2="656.727" y2="122.977"/>
		<line fill="none" stroke="#000000" stroke-miterlimit="10" x1="636.185" y1="123.116" x2="656.864" y2="102.435"/>
	</g>
	<g>
		<rect x="597.116" y="97.702" fill="#F1EA31" stroke="#000000" stroke-miterlimit="10" width="20.68" height="20.681"/>
		<line fill="none" stroke="#000000" stroke-miterlimit="10" x1="597.116" y1="97.702" x2="617.658" y2="118.244"/>
		<line fill="none" stroke="#000000" stroke-miterlimit="10" x1="597.116" y1="118.382" x2="617.796" y2="97.702"/>
	</g>
	<g>
		<rect x="529.864" y="90.69" fill="#F1EA31" stroke="#000000" stroke-miterlimit="10" width="20.68" height="20.681"/>
		<line fill="none" stroke="#000000" stroke-miterlimit="10" x1="529.864" y1="90.69" x2="550.406" y2="111.232"/>
		<line fill="none" stroke="#000000" stroke-miterlimit="10" x1="529.864" y1="111.371" x2="550.544" y2="90.69"/>
	</g>
	<g>
		<rect x="485.95" y="87.5" fill="#F1EA31" stroke="#000000" stroke-miterlimit="10" width="20.68" height="20.681"/>
		<line fill="none" stroke="#000000" stroke-miterlimit="10" x1="485.95" y1="87.5" x2="506.492" y2="108.042"/>
		<line fill="none" stroke="#000000" stroke-miterlimit="10" x1="485.95" y1="108.181" x2="506.63" y2="87.5"/>
	</g>
	<g>
		<rect x="277.327" y="146.424" fill="#F1EA31" stroke="#000000" stroke-miterlimit="10" width="20.68" height="20.681"/>
		<line fill="none" stroke="#000000" stroke-miterlimit="10" x1="277.327" y1="146.424" x2="297.869" y2="166.966"/>
		<line fill="none" stroke="#000000" stroke-miterlimit="10" x1="277.327" y1="167.105" x2="298.006" y2="146.424"/>
	</g>
	<g>
		<rect x="232.994" y="142.271" fill="#F1EA31" stroke="#000000" stroke-miterlimit="10" width="20.68" height="20.681"/>
		<line fill="none" stroke="#000000" stroke-miterlimit="10" x1="232.994" y1="142.271" x2="253.536" y2="162.813"/>
		<line fill="none" stroke="#000000" stroke-miterlimit="10" x1="232.994" y1="162.952" x2="253.673" y2="142.271"/>
	</g>
	<g>
		<rect x="204.721" y="138.118" fill="#F1EA31" stroke="#000000" stroke-miterlimit="10" width="20.68" height="20.681"/>
		<line fill="none" stroke="#000000" stroke-miterlimit="10" x1="204.721" y1="138.118" x2="225.263" y2="158.66"/>
		<line fill="none" stroke="#000000" stroke-miterlimit="10" x1="204.721" y1="158.798" x2="225.4" y2="138.118"/>
	</g>
	<g>
		<rect x="169.056" y="82.383" fill="#F1EA31" stroke="#000000" stroke-miterlimit="10" width="20.68" height="20.681"/>
		<line fill="none" stroke="#000000" stroke-miterlimit="10" x1="169.056" y1="82.383" x2="189.598" y2="102.925"/>
		<line fill="none" stroke="#000000" stroke-miterlimit="10" x1="169.056" y1="103.064" x2="189.735" y2="82.383"/>
	</g>
	<g>
		<rect x="214.923" y="89.677" fill="#F1EA31" stroke="#000000" stroke-miterlimit="10" width="20.68" height="20.681"/>
		<line fill="none" stroke="#000000" stroke-miterlimit="10" x1="214.923" y1="89.677" x2="235.466" y2="110.219"/>
		<line fill="none" stroke="#000000" stroke-miterlimit="10" x1="214.923" y1="110.357" x2="235.603" y2="89.677"/>
	</g>
	<g>
		<rect x="242.333" y="94.37" fill="#F1EA31" stroke="#000000" stroke-miterlimit="10" width="20.68" height="20.681"/>
		<line fill="none" stroke="#000000" stroke-miterlimit="10" x1="242.333" y1="94.37" x2="262.876" y2="114.912"/>
		<line fill="none" stroke="#000000" stroke-miterlimit="10" x1="242.333" y1="115.051" x2="263.013" y2="94.37"/>
	</g>
	<g>
		<rect x="287.529" y="98.997" fill="#F1EA31" stroke="#000000" stroke-miterlimit="10" width="20.68" height="20.681"/>
		<line fill="none" stroke="#000000" stroke-miterlimit="10" x1="287.529" y1="98.997" x2="308.072" y2="119.539"/>
		<line fill="none" stroke="#000000" stroke-miterlimit="10" x1="287.529" y1="119.678" x2="308.209" y2="98.997"/>
	</g>
	<g>
		<rect x="315.111" y="103.15" fill="#F1EA31" stroke="#000000" stroke-miterlimit="10" width="20.68" height="20.681"/>
		<line fill="none" stroke="#000000" stroke-miterlimit="10" x1="315.111" y1="103.15" x2="335.654" y2="123.692"/>
		<line fill="none" stroke="#000000" stroke-miterlimit="10" x1="315.111" y1="123.831" x2="335.791" y2="103.15"/>
	</g>
	<g>
		<rect x="138.722" y="77.298" fill="#F1EA31" stroke="#000000" stroke-miterlimit="10" width="20.68" height="20.681"/>
		<line fill="none" stroke="#000000" stroke-miterlimit="10" x1="138.722" y1="77.298" x2="159.264" y2="97.84"/>
		<line fill="none" stroke="#000000" stroke-miterlimit="10" x1="138.722" y1="97.979" x2="159.401" y2="77.298"/>
	</g>
</g>
<g id="Layer_19">
	<text transform="matrix(1 0 0 1 88.1284 467.104)" font-family="'MyriadPro-Regular'" font-size="12">2x2, går att köpa till plats</text>
	<text transform="matrix(1 0 0 1 88.1284 495.8618)" font-family="'MyriadPro-Regular'" font-size="12">2x2, ej tillgänglig för utökad plats</text>
	<text transform="matrix(1 0 0 1 88.1284 525.1245)" font-family="'MyriadPro-Regular'" font-size="12">3x3</text>
</g>
<g id="outlineunderlvl">
	<polygon fill="none" stroke="#353535" stroke-width="2" stroke-miterlimit="10" points="64.82,48.342 40.612,167.602
		40.612,438.163 407.292,438.163 407.292,398.291 728.761,398.291 728.761,292.915 726.714,292.915 726.714,284.995
		790.348,284.995 790.348,185.046 726.98,185.046 726.98,180.775 784.651,180.775 798.893,110.999 364.572,23.422 353.658,91.062
		197.964,74.686 	"/>
</g>
<g id="Layer_7">
	<polyline fill="none" stroke="#353535" stroke-width="2" stroke-miterlimit="10" points="408.004,211.279 408.004,291.134
		615.907,291.134 615.907,225.63 408.004,224.918 	"/>
	<polyline fill="none" stroke="#353535" stroke-width="2" stroke-miterlimit="10" points="622.315,180.775 408.004,180.775
		408.004,200.377 	"/>
	<polyline fill="none" stroke="#353535" stroke-width="2" stroke-miterlimit="10" points="644.744,180.775 726.624,180.775
		726.624,196.439 	"/>
	<polyline fill="none" stroke="#353535" stroke-width="2" stroke-miterlimit="10" points="726.624,217.086 726.624,226.341
		726.624,291.134 646.524,291.134 	"/>
	<path fill="none" stroke="#353535" stroke-width="2" stroke-miterlimit="10" d="M667.528,226.343v64.791V226.343z"/>

		<line fill="none" stroke="#353535" stroke-width="2" stroke-miterlimit="10" x1="666.104" y1="226.343" x2="726.624" y2="226.343"/>

		<line fill="none" stroke="#353535" stroke-width="2" stroke-miterlimit="10" x1="563.933" y1="226.343" x2="563.933" y2="291.134"/>

		<line fill="none" stroke="#353535" stroke-width="2" stroke-miterlimit="10" x1="511.955" y1="226.343" x2="511.955" y2="291.134"/>

		<line fill="none" stroke="#353535" stroke-width="2" stroke-miterlimit="10" x1="460.692" y1="226.343" x2="460.692" y2="291.134"/>

		<rect x="71.94" y="180.775" fill="none" stroke="#353535" stroke-width="2" stroke-miterlimit="10" width="281.002" height="195.088"/>
	<polyline fill="none" stroke="#353535" stroke-width="2" stroke-miterlimit="10" points="370.031,438.163 370.031,398.291
		407.292,398.291 407.292,365.419 381.423,365.419 	"/>
	<polyline fill="none" stroke="#353535" stroke-width="2" stroke-miterlimit="10" points="100.42,180.775 100.42,169.383
		112.168,169.383 119.407,164.636 	"/>
	<polyline fill="none" stroke="#353535" stroke-width="2" stroke-miterlimit="10" points="135.545,180.775 135.545,169.383
		120.831,169.383 	"/>
	<polyline fill="none" stroke="#353535" stroke-width="2" stroke-miterlimit="10" points="102.971,375.863 102.971,389.094
		113.592,389.094 122.848,392.239 	"/>
	<polyline fill="none" stroke="#353535" stroke-width="2" stroke-miterlimit="10" points="138.809,375.863 138.809,389.153
		124.984,389.153 	"/>
	<polygon fill="#FFFFFF" stroke="#353535" stroke-miterlimit="10" points="459.268,141.141 490.591,140.222 548.269,138.53
		548.269,170.57 459.268,172.587 	"/>
	<line fill="none" stroke="#353535" stroke-miterlimit="10" x1="490.364" y1="171.882" x2="490.364" y2="140.222"/>
	<line fill="none" stroke="#353535" stroke-miterlimit="10" x1="487.517" y1="171.882" x2="487.517" y2="140.222"/>
	<line fill="none" stroke="#353535" stroke-miterlimit="10" x1="484.668" y1="171.882" x2="484.668" y2="140.222"/>
	<line fill="none" stroke="#353535" stroke-miterlimit="10" x1="481.82" y1="171.882" x2="481.82" y2="140.222"/>
	<line fill="none" stroke="#353535" stroke-miterlimit="10" x1="478.972" y1="171.882" x2="478.972" y2="140.222"/>
	<line fill="none" stroke="#353535" stroke-miterlimit="10" x1="476.125" y1="171.882" x2="476.125" y2="140.222"/>
	<line fill="none" stroke="#353535" stroke-miterlimit="10" x1="473.275" y1="171.882" x2="473.275" y2="140.222"/>
	<line fill="none" stroke="#353535" stroke-miterlimit="10" x1="470.429" y1="171.882" x2="470.429" y2="140.222"/>
	<line fill="none" stroke="#353535" stroke-miterlimit="10" x1="467.579" y1="171.882" x2="467.579" y2="140.222"/>
	<line fill="none" stroke="#353535" stroke-miterlimit="10" x1="464.732" y1="171.882" x2="464.732" y2="141.646"/>
	<line fill="none" stroke="#353535" stroke-miterlimit="10" x1="461.884" y1="171.882" x2="461.884" y2="141.646"/>
	<line fill="none" stroke="#353535" stroke-miterlimit="10" x1="517.42" y1="171.882" x2="517.42" y2="140.222"/>
	<line fill="none" stroke="#353535" stroke-miterlimit="10" x1="520.269" y1="170.459" x2="520.269" y2="138.798"/>
	<line fill="none" stroke="#353535" stroke-miterlimit="10" x1="523.116" y1="170.459" x2="523.116" y2="138.798"/>
	<line fill="none" stroke="#353535" stroke-miterlimit="10" x1="525.963" y1="170.459" x2="525.963" y2="138.798"/>
	<line fill="none" stroke="#353535" stroke-miterlimit="10" x1="528.812" y1="170.459" x2="528.812" y2="138.798"/>
	<line fill="none" stroke="#353535" stroke-miterlimit="10" x1="531.659" y1="170.459" x2="531.659" y2="138.798"/>
	<line fill="none" stroke="#353535" stroke-miterlimit="10" x1="534.508" y1="170.459" x2="534.508" y2="138.798"/>
	<line fill="none" stroke="#353535" stroke-miterlimit="10" x1="537.354" y1="170.459" x2="537.354" y2="138.798"/>
	<line fill="none" stroke="#353535" stroke-miterlimit="10" x1="540.204" y1="170.459" x2="540.204" y2="138.798"/>
	<line fill="none" stroke="#353535" stroke-miterlimit="10" x1="543.051" y1="170.459" x2="543.051" y2="138.798"/>
	<line fill="none" stroke="#353535" stroke-miterlimit="10" x1="545.9" y1="170.459" x2="545.9" y2="138.798"/>

		<line fill="none" stroke="#353535" stroke-width="2" stroke-miterlimit="10" x1="408.004" y1="291.134" x2="408.004" y2="333.676"/>
	<circle fill="none" stroke="#353535" stroke-width="2" stroke-miterlimit="10" cx="388.662" cy="418.581" r="14.904"/>
</g>
<g id="Layer_8">
	<circle fill="#353535" cx="274.504" cy="105.185" r="4.154"/>
	<circle fill="#353535" cx="201.643" cy="96.877" r="4.154"/>
	<circle fill="#353535" cx="129.612" cy="87.639" r="4.153"/>
	<circle fill="#353535" cx="346.89" cy="113.491" r="4.154"/>
	<circle fill="#353535" cx="336.211" cy="165.23" r="4.154"/>
	<circle fill="#353535" cx="264.299" cy="156.765" r="4.154"/>
	<circle fill="#353535" cx="190.726" cy="148.458" r="4.154"/>
	<circle fill="#353535" cx="119.406" cy="140.223" r="4.153"/>
	<circle fill="#353535" cx="457.731" cy="117.644" r="4.153"/>
	<circle fill="#353535" cx="568.085" cy="115.864" r="4.152"/>
	<path fill="#353535" d="M685.686,117.644c0,2.294-1.859,4.153-4.156,4.153c-2.294,0-4.151-1.859-4.151-4.153
		c0-2.294,1.857-4.154,4.151-4.154C683.826,113.49,685.686,115.35,685.686,117.644z"/>
	<circle fill="#353535" cx="410.026" cy="173.188" r="4.153"/>
	<circle fill="#353535" cx="446.4" cy="173.188" r="4.153"/>
	<circle fill="#353535" cx="558.184" cy="174.012" r="4.153"/>
	<circle fill="#353535" cx="669.551" cy="174.012" r="4.152"/>
</g>
<g id="text">
	<text transform="matrix(1 0 0 1 746.916 239.8696)" fill="#353535" font-family="'Calibri'" font-size="17.088">VIP</text>
	<text transform="matrix(1 0 0 1 156.668 286.8628)" fill="#353535" font-family="'Calibri'" font-size="17.088">Föreläsningssal</text>
	<text transform="matrix(1 0 0 1 467.5791 196.438)" fill="#353535" font-family="'Calibri'" font-size="17.088">Studentexpo</text>
	<text transform="matrix(1 0 0 1 644.7441 348.9849)" fill="#353535" font-family="'MyriadPro-Regular'" font-size="17.088">Lounge</text>

		<text transform="matrix(0.9851 0.172 -0.172 0.9851 367.1543 46.6694)" fill="#353535" font-family="'MyriadPro-Regular'" font-size="14.24">Reception</text>

</g>
<g id="Layer_17" display="none">
	<polygon display="inline" opacity="0.9" fill="#A94624" stroke="#353535" stroke-width="2" stroke-miterlimit="10" points="
		382.605,75.709 400.341,64.115 404.205,70.027 402.608,71.072 403.756,72.829 401.52,74.292 400.475,72.693 390.489,79.222
		391.534,80.82 389.058,82.439 387.908,80.681 386.47,81.621 	"/>
	<polyline display="inline" fill="none" stroke="#353535" stroke-miterlimit="10" points="391.473,69.913 389.958,67.596
		395.311,64.096 396.826,66.413 	"/>
	<circle display="inline" fill="none" stroke="#353535" stroke-miterlimit="10" cx="390.572" cy="62.69" r="1.861"/>
</g>
<g id="booth_names">
	<text transform="matrix(1 0 0 1 144.7188 113.2329)" font-family="'OpenSans-Bold'" font-size="15">1</text>
	<text transform="matrix(1 0 0 1 176.3335 117.5664)" font-family="'OpenSans-Bold'" font-size="15">3</text>
	<text transform="matrix(1 0 0 1 160.7197 135.8999)" font-family="'OpenSans-Bold'" font-size="15">2</text>
	<text transform="matrix(1 0 0 1 221.0522 122.5664)" font-family="'OpenSans-Bold'" font-size="15">5</text>
	<text transform="matrix(1 0 0 1 210.7192 136.8994)" font-family="'OpenSans-Bold'" font-size="15">4</text>
	<text transform="matrix(1 0 0 1 239.7192 140.2334)" font-family="'OpenSans-Bold'" font-size="15">6</text>
	<text transform="matrix(1 0 0 1 248.0522 127.8999)" font-family="'OpenSans-Bold'" font-size="15">7</text>
	<text transform="matrix(1 0 0 1 283.3857 144.5664)" font-family="'OpenSans-Bold'" font-size="15">8</text>
	<text transform="matrix(1 0 0 1 293.0522 133.2329)" font-family="'OpenSans-Bold'" font-size="15">9</text>
	<text transform="matrix(1 0 0 1 306.7715 151.8999)" font-family="'OpenSans-Bold'" font-size="15">10</text>
	<text transform="matrix(1 0 0 1 316.771 136.8999)" font-family="'OpenSans-Bold'" font-size="15">11</text>
	<text transform="matrix(1 0 0 1 375.438 202.8999)" font-family="'OpenSans-Bold'" font-size="15">12</text>
	<text transform="matrix(1 0 0 1 375.1045 233.2339)" font-family="'OpenSans-Bold'" font-size="15">13</text>
	<text transform="matrix(1 0 0 1 70.1045 424.5659)" font-family="'OpenSans-Bold'" font-size="15">14</text>
	<text transform="matrix(1 0 0 1 147.771 412.8999)" font-family="'OpenSans-Bold'" font-size="15">15</text>
	<text transform="matrix(1 0 0 1 191.104 412.8999)" font-family="'OpenSans-Bold'" font-size="15">16</text>
	<text transform="matrix(1 0 0 1 234.1045 412.8999)" font-family="'OpenSans-Bold'" font-size="15">17</text>
	<text transform="matrix(1 0 0 1 278.771 412.8999)" font-family="'OpenSans-Bold'" font-size="15">18</text>
	<text transform="matrix(1 0 0 1 322.1045 412.5659)" font-family="'OpenSans-Bold'" font-size="15">19</text>
	<text transform="matrix(1 0 0 1 440.1045 369.8999)" font-family="'OpenSans-Bold'" font-size="15">20</text>
	<text transform="matrix(1 0 0 1 440.7715 328.5659)" font-family="'OpenSans-Bold'" font-size="15">21</text>
	<text transform="matrix(1 0 0 1 480.4385 327.8999)" font-family="'OpenSans-Bold'" font-size="15">23</text>
	<text transform="matrix(1 0 0 1 477.7715 370.2339)" font-family="'OpenSans-Bold'" font-size="15">22</text>
	<text transform="matrix(1 0 0 1 518.7705 328.5659)" font-family="'OpenSans-Bold'" font-size="15">25</text>
	<text transform="matrix(1 0 0 1 516.1045 369.8999)" font-family="'OpenSans-Bold'" font-size="15">24</text>
	<text transform="matrix(1 0 0 1 553.7705 369.5659)" font-family="'OpenSans-Bold'" font-size="15">26</text>
	<text transform="matrix(1 0 0 1 555.7715 327.8999)" font-family="'OpenSans-Bold'" font-size="15">27</text>
	<text transform="matrix(1 0 0 1 588.7705 369.5659)" font-family="'OpenSans-Bold'" font-size="15">28</text>
	<text transform="matrix(1 0 0 1 591.1045 327.5659)" font-family="'OpenSans-Bold'" font-size="15">29</text>
	<text transform="matrix(1 0 0 1 487.7705 121.8994)" font-family="'OpenSans-Bold'" font-size="15">30</text>
	<text transform="matrix(1 0 0 1 531.1045 125.5664)" font-family="'OpenSans-Bold'" font-size="15">32</text>
	<text transform="matrix(1 0 0 1 598.7715 132.8999)" font-family="'OpenSans-Bold'" font-size="15">34</text>
	<text transform="matrix(1 0 0 1 637.7705 137.2329)" font-family="'OpenSans-Bold'" font-size="15">35</text>
	<text transform="matrix(1 0 0 1 581.1045 152.5664)" font-family="'OpenSans-Bold'" font-size="15">33</text>
	<text transform="matrix(1 0 0 1 654.4375 150.5664)" font-family="'OpenSans-Bold'" font-size="15">36</text>
</g>
</svg>
