<?xml version="1.0" encoding="utf-8"?>
<!-- Generator: Adobe Illustrator 17.0.0, SVG Export Plug-In . SVG Version: 6.00 Build 0)  -->
<!DOCTYPE svg PUBLIC "-//W3C//DTD SVG 1.1//EN" "http://www.w3.org/Graphics/SVG/1.1/DTD/svg11.dtd">
<svg version="1.1" id="Lager_1" xmlns="http://www.w3.org/2000/svg" xmlns:xlink="http://www.w3.org/1999/xlink" x="0px" y="0px"
	 width="35.455px" height="34.545px" viewBox="0 0 35.455 34.545" enable-background="new 0 0 35.455 34.545" xml:space="preserve">
<path fill="#868686" d="M31.577,15.152c0,7.451-5.951,14.222-13.291,15.123S4.996,25.867,4.996,18.416S10.946,4.194,18.286,3.293
	S31.577,7.701,31.577,15.152z"/>
<g>
	<defs>
		<path id="SVGID_1_" d="M31.577,15.152c0,7.451-5.951,14.222-13.291,15.123S4.996,25.867,4.996,18.416S10.946,4.194,18.286,3.293
			S31.577,7.701,31.577,15.152z"/>
	</defs>
	<clipPath id="SVGID_2_">
		<use xlink:href="#SVGID_1_"  overflow="visible"/>
	</clipPath>
	<path clip-path="url(#SVGID_2_)" fill="#C9C9C9" d="M30.014,13.493c0,7.451-5.951,14.222-13.291,15.123
		c-7.34,0.901-13.291-4.408-13.291-11.859S9.383,2.535,16.724,1.634S30.014,6.042,30.014,13.493z"/>
</g>
<g opacity="0.4">
	<g>
		<path fill="#FFFFFF" d="M19.115,27.767c3.099-1.82,5.693-2.71,8.09-5.592c2.267-2.727,3.044-6.02,3.109-9.49
			c0.013-0.661-2.879-0.201-2.898,0.776c-0.056,2.944-0.644,5.546-2.29,8.017c-1.981,2.974-4.828,3.974-7.741,5.685
			C15.709,28.149,18.324,28.232,19.115,27.767L19.115,27.767z"/>
	</g>
</g>
</svg>
