<?xml version="1.0" encoding="utf-8"?>
<!-- Generator: Adobe Illustrator 16.0.4, SVG Export Plug-In . SVG Version: 6.00 Build 0)  -->
<!DOCTYPE svg PUBLIC "-//W3C//DTD SVG 1.1//EN" "http://www.w3.org/Graphics/SVG/1.1/DTD/svg11.dtd">
<svg version="1.1" xmlns="http://www.w3.org/2000/svg" xmlns:xlink="http://www.w3.org/1999/xlink" x="0px" y="0px"
	 width="543.741px" height="220px" viewBox="0 0 543.741 220" enable-background="new 0 0 543.741 220" xml:space="preserve">
<g id="logo">
	<polygon fill="#9F9F9F" points="0,200 20,200 20,199.782 0.005,199.782 0.005,92.891 20,92.891 20,39.958 0.005,39.958 	"/>
	<rect x="28.006" y="40" fill="#9F9F9F" width="19.995" height="52.891"/>
	<rect x="56.005" y="40" fill="#9F9F9F" width="20" height="52.891"/>
	<polygon fill="#717171" points="0.005,199.782 20,199.782 20.005,199.782 20.005,92.891 20,92.891 0.005,92.891 	"/>
	<polygon fill="#717171" points="28.005,199.782 48.005,199.782 48.005,199.782 48.005,92.891 48.001,92.891 28.005,92.891 	"/>
	<rect x="56.005" y="92.891" fill="#717171" width="20" height="106.892"/>
	<path fill="#F9A13A" d="M104.005,107.143V10c0,0,0-10-10-10s-10,10-10,10v82.857L104.005,107.143z"/>
	<path fill="#F9A13A" d="M132.005,127.143V30c0,0,0-10-10-10s-10,10-10,10v82.857L132.005,127.143z"/>
	<path fill="#F9A13A" d="M160.005,147.143V50c0,0,0-10-10-10s-10,10-10,10v82.857L160.005,147.143z"/>
	<path fill="#F58223" d="M84.005,210c0,0,0,10,10,10s10-10,10-10V107.143l-20-14.286V210z"/>
	<path fill="#F58223" d="M112.005,200c0,0,0,10,10,10s10-10,10-10v-72.857l-20-14.286V200z"/>
	<path fill="#F58223" d="M140.005,190c0,0,0,10,10,10s10-10,10-10v-42.857l-20-14.286V190z"/>
</g>
<g id="text">
	<g>
		<path fill="#272727" d="M215.536,130.96l-12.848-45.246h-0.387c0.602,7.706,0.902,13.693,0.902,17.961v27.285h-15.039V68.14
			h22.602l13.105,44.602h0.344l12.848-44.602h22.645v62.82H244.11v-27.543c0-1.432,0.021-3.022,0.064-4.77
			c0.043-1.747,0.236-6.03,0.58-12.848h-0.387l-12.676,45.16H215.536z"/>
		<path fill="#272727" d="M295.678,130.96h-16.973V82.019h-15.34V68.14h47.61v13.879h-15.297V130.96z"/>
		<path fill="#272727" d="M367.999,98.218c0,10.484-2.887,18.562-8.658,24.234s-13.887,8.508-24.342,8.508h-20.324V68.14h21.742
			c10.084,0,17.867,2.578,23.354,7.734S367.999,88.479,367.999,98.218z M350.382,98.82c0-5.758-1.139-10.026-3.416-12.805
			c-2.277-2.778-5.736-4.168-10.377-4.168h-4.941v35.191h3.781c5.156,0,8.938-1.497,11.344-4.49
			C349.179,109.555,350.382,104.979,350.382,98.82z"/>
		<path fill="#272727" d="M413.833,130.96h-43.914v-9.238l15.77-15.941c4.67-4.784,7.721-8.1,9.152-9.947s2.463-3.559,3.094-5.135
			c0.631-1.575,0.945-3.208,0.945-4.898c0-2.521-0.695-4.397-2.084-5.629c-1.389-1.231-3.244-1.848-5.564-1.848
			c-2.436,0-4.799,0.559-7.09,1.676s-4.684,2.707-7.176,4.77l-7.219-8.551c3.094-2.635,5.658-4.497,7.691-5.586
			c2.033-1.088,4.254-1.926,6.66-2.514c2.406-0.587,5.1-0.881,8.078-0.881c3.924,0,7.391,0.716,10.398,2.148
			c3.008,1.433,5.342,3.438,7.004,6.016s2.492,5.529,2.492,8.852c0,2.894-0.508,5.607-1.525,8.143s-2.592,5.135-4.727,7.799
			s-5.895,6.46-11.279,11.387l-8.078,7.605v0.602h27.371V130.96z"/>
		<path fill="#272727" d="M459.937,99.55c0,10.972-1.799,19.093-5.393,24.363c-3.596,5.271-9.131,7.906-16.607,7.906
			c-7.248,0-12.713-2.721-16.393-8.164c-3.682-5.442-5.521-13.478-5.521-24.105c0-11.086,1.789-19.257,5.371-24.514
			c3.58-5.256,9.094-7.885,16.543-7.885c7.246,0,12.725,2.75,16.436,8.25C458.081,80.902,459.937,88.952,459.937,99.55z
			 M429.214,99.55c0,7.706,0.666,13.228,1.998,16.564c1.332,3.337,3.572,5.006,6.725,5.006c3.094,0,5.328-1.69,6.703-5.07
			c1.375-3.38,2.062-8.88,2.062-16.5c0-7.706-0.695-13.241-2.084-16.607c-1.391-3.366-3.617-5.049-6.682-5.049
			c-3.123,0-5.357,1.683-6.703,5.049C429.886,86.309,429.214,91.845,429.214,99.55z"/>
		<path fill="#272727" d="M493.265,130.96h-13.277V94.609l0.129-5.973l0.215-6.531c-2.207,2.206-3.738,3.652-4.598,4.34
			l-7.219,5.801l-6.402-7.992l20.238-16.113h10.914V130.96z"/>
		<path fill="#272727" d="M523.847,90.828c6.072,0,10.906,1.705,14.502,5.113c3.594,3.409,5.393,8.078,5.393,14.008
			c0,7.019-2.164,12.418-6.488,16.199c-4.326,3.781-10.514,5.672-18.562,5.672c-6.99,0-12.633-1.131-16.93-3.395v-11.473
			c2.262,1.203,4.898,2.185,7.906,2.943c3.008,0.759,5.857,1.139,8.551,1.139c8.105,0,12.16-3.323,12.16-9.969
			c0-6.331-4.197-9.496-12.59-9.496c-1.52,0-3.195,0.15-5.027,0.451c-1.834,0.301-3.324,0.623-4.469,0.967l-5.285-2.836
			l2.363-32.012h34.074v11.258h-22.43l-1.16,12.332l1.504-0.301C519.104,91.028,521.269,90.828,523.847,90.828z"/>
	</g>
	<g>
		<path fill="#272727" d="M198.503,172l-7.992-20.883h-0.129c0.15,1.654,0.226,3.62,0.226,5.897V172h-2.53v-23.558h4.125
			l7.46,19.433h0.129l7.525-19.433h4.093V172h-2.739v-15.179c0-1.74,0.075-3.631,0.226-5.672h-0.129L200.711,172H198.503z"/>
		<path fill="#272727" d="M230.344,172h-13.132v-23.558h13.132v2.433h-10.393v7.589h9.765v2.417h-9.765v8.669h10.393V172z"/>
		<path fill="#272727" d="M253.709,159.996c0,3.889-1.056,6.862-3.166,8.918c-2.111,2.058-5.148,3.086-9.112,3.086h-6.526v-23.558
			h7.219c3.663,0,6.51,1.015,8.54,3.045S253.709,156.354,253.709,159.996z M250.809,160.092c0-3.072-0.771-5.387-2.312-6.945
			s-3.832-2.336-6.872-2.336h-3.98v18.82h3.335c3.266,0,5.72-0.803,7.364-2.409S250.809,163.24,250.809,160.092z"/>
		<path fill="#272727" d="M258.302,172v-23.558h2.739V172H258.302z"/>
		<path fill="#272727" d="M279.975,172h-13.132v-23.558h13.132v2.433h-10.393v7.589h9.765v2.417h-9.765v8.669h10.393V172z"/>
		<path fill="#272727" d="M291.787,172h-2.739v-21.125h-7.46v-2.433h17.66v2.433h-7.46V172z"/>
		<path fill="#272727" d="M315.265,172h-13.133v-23.558h13.133v2.433h-10.393v7.589h9.764v2.417h-9.764v8.669h10.393V172z"/>
		<path fill="#272727" d="M336.841,172h-3.223l-8.588-11.424l-2.465,2.191V172h-2.74v-23.558h2.74v11.682l10.683-11.682h3.239
			l-9.475,10.232L336.841,172z"/>
		<path fill="#272727" d="M357.821,172h-3.127l-12.874-19.771h-0.129c0.172,2.32,0.258,4.447,0.258,6.381V172h-2.53v-23.558h3.094
			l12.843,19.69h0.129c-0.021-0.29-0.07-1.222-0.146-2.796c-0.075-1.573-0.102-2.699-0.08-3.375v-13.519h2.562V172z"/>
		<path fill="#272727" d="M363.638,172v-23.558h2.74V172H363.638z"/>
		<path fill="#272727" d="M389.195,172h-3.223l-8.588-11.424l-2.465,2.191V172h-2.74v-23.558h2.74v11.682l10.683-11.682h3.239
			l-9.475,10.232L389.195,172z"/>
		<path fill="#272727" d="M410.578,159.996c0,3.889-1.056,6.862-3.166,8.918c-2.111,2.058-5.148,3.086-9.112,3.086h-6.526v-23.558
			h7.219c3.663,0,6.51,1.015,8.541,3.045C409.562,153.518,410.578,156.354,410.578,159.996z M407.678,160.092
			c0-3.072-0.771-5.387-2.312-6.945c-1.541-1.558-3.832-2.336-6.872-2.336h-3.979v18.82h3.335c3.266,0,5.72-0.803,7.364-2.409
			C406.855,165.617,407.678,163.24,407.678,160.092z"/>
		<path fill="#272727" d="M429.979,172l-2.933-7.493h-9.442l-2.9,7.493h-2.771l9.313-23.654h2.304L432.814,172H429.979z
			 M426.191,162.042l-2.738-7.299c-0.355-0.924-0.721-2.057-1.096-3.4c-0.237,1.031-0.575,2.165-1.016,3.4l-2.771,7.299H426.191z"/>
		<path fill="#272727" d="M445.754,159.657h8.008v11.457c-1.246,0.397-2.514,0.698-3.803,0.902s-2.782,0.306-4.479,0.306
			c-3.567,0-6.344-1.061-8.331-3.183c-1.987-2.121-2.981-5.094-2.981-8.918c0-2.449,0.492-4.595,1.475-6.437
			c0.983-1.842,2.398-3.25,4.246-4.222s4.012-1.458,6.494-1.458c2.514,0,4.854,0.462,7.025,1.386l-1.064,2.417
			c-2.127-0.902-4.173-1.354-6.139-1.354c-2.868,0-5.107,0.854-6.719,2.562s-2.418,4.077-2.418,7.106
			c0,3.18,0.776,5.591,2.329,7.235c1.552,1.644,3.832,2.465,6.84,2.465c1.633,0,3.228-0.188,4.786-0.564v-7.251h-5.27V159.657z"/>
		<path fill="#272727" d="M473.566,172l-2.933-7.493h-9.442l-2.9,7.493h-2.771l9.313-23.654h2.304L476.402,172H473.566z
			 M469.779,162.042l-2.738-7.299c-0.355-0.924-0.721-2.057-1.096-3.4c-0.237,1.031-0.575,2.165-1.016,3.4l-2.771,7.299H469.779z"/>
		<path fill="#272727" d="M481.721,162.203V172h-2.74v-23.558h6.462c2.89,0,5.024,0.553,6.405,1.66
			c1.38,1.106,2.07,2.771,2.07,4.995c0,3.115-1.579,5.221-4.737,6.316L495.578,172h-3.239l-5.704-9.797H481.721z M481.721,159.851
			h3.754c1.934,0,3.352-0.384,4.254-1.152c0.902-0.768,1.354-1.92,1.354-3.456c0-1.558-0.459-2.68-1.378-3.368
			c-0.918-0.688-2.393-1.031-4.423-1.031h-3.561V159.851z"/>
		<path fill="#272727" d="M517.123,172h-3.127l-12.874-19.771h-0.129c0.172,2.32,0.258,4.447,0.258,6.381V172h-2.53v-23.558h3.094
			l12.843,19.69h0.129c-0.021-0.29-0.07-1.222-0.146-2.796c-0.075-1.573-0.102-2.699-0.08-3.375v-13.519h2.562V172z"/>
		<path fill="#272727" d="M537.748,172l-2.933-7.493h-9.442l-2.9,7.493h-2.771l9.313-23.654h2.304L540.584,172H537.748z
			 M533.961,162.042l-2.738-7.299c-0.355-0.924-0.721-2.057-1.096-3.4c-0.237,1.031-0.575,2.165-1.016,3.4l-2.771,7.299H533.961z"/>
	</g>
</g>
</svg>
