<?xml version="1.0" encoding="utf-8"?>
<!-- Generator: Adobe Illustrator 16.0.0, SVG Export Plug-In . SVG Version: 6.00 Build 0)  -->
<!DOCTYPE svg PUBLIC "-//W3C//DTD SVG 1.1//EN" "http://www.w3.org/Graphics/SVG/1.1/DTD/svg11.dtd">
<svg version="1.1" id="Layer_1" xmlns="http://www.w3.org/2000/svg" xmlns:xlink="http://www.w3.org/1999/xlink" x="0px" y="0px"
	 width="210.875px" height="62.093px" viewBox="0 0 210.875 62.093" enable-background="new 0 0 210.875 62.093"
	 xml:space="preserve">
<g>
	<defs>
		<rect id="SVGID_1_" y="0" width="210.875" height="62.093"/>
	</defs>
	<clipPath id="SVGID_2_">
		<use xlink:href="#SVGID_1_"  overflow="visible"/>
	</clipPath>
	<path clip-path="url(#SVGID_2_)" fill="#FFFFFF" d="M155.726,38.35c0,2.81,1.486,4.587,4.167,4.587c1.841,0,2.809-0.517,3.973-1.68
		l2.1,1.97c-1.681,1.68-3.264,2.552-6.138,2.552c-4.102,0-7.363-2.164-7.363-8.396c0-5.297,2.745-8.365,6.943-8.365
		c4.394,0,6.944,3.229,6.944,7.88v1.453H155.726z M162.638,33.829c-0.518-1.227-1.679-2.066-3.23-2.066
		c-1.55,0-2.745,0.84-3.262,2.066c-0.323,0.743-0.388,1.228-0.42,2.229h7.364C163.058,35.056,162.961,34.572,162.638,33.829"/>
	<polygon clip-path="url(#SVGID_2_)" fill="#FFFFFF" points="93.001,45.585 93.001,29.692 87.704,40.9 85.12,40.9 79.694,29.692 
		79.694,45.585 76.206,45.585 76.206,22.589 79.694,22.589 86.412,36.377 93.001,22.589 96.489,22.589 96.489,45.585 	"/>
	<path clip-path="url(#SVGID_2_)" fill="#FFFFFF" d="M101.077,22.581h3.488v3.488h-3.488V22.581z M101.174,29.692h3.294v15.893
		h-3.294V29.692z"/>
	<path clip-path="url(#SVGID_2_)" fill="#FFFFFF" d="M113.66,45.585c-3.067,0-4.49-2.196-4.49-4.554v-8.82h-1.872v-2.519h1.872
		v-5.165h3.296v5.165h3.165v2.519h-3.165v8.659c0,1.194,0.581,1.905,1.808,1.905h1.357v2.81H113.66z"/>
	<path clip-path="url(#SVGID_2_)" fill="#FFFFFF" d="M123.87,45.585c-3.068,0-4.49-2.196-4.49-4.554v-8.82h-1.873v-2.519h1.873
		v-5.165h3.296v5.165h3.164v2.519h-3.164v8.659c0,1.194,0.58,1.905,1.808,1.905h1.356v2.81H123.87z"/>
	<polygon clip-path="url(#SVGID_2_)" fill="#FFFFFF" points="146.388,45.585 146.388,29.692 141.092,40.9 138.508,40.9 
		133.082,29.692 133.082,45.585 129.594,45.585 129.594,22.589 133.082,22.589 139.8,36.377 146.388,22.589 149.877,22.589 
		149.877,45.585 	"/>
	<path clip-path="url(#SVGID_2_)" fill="#FFFFFF" d="M178.319,45.585V43.84c-1.228,1.486-2.552,1.939-4.328,1.939
		c-1.647,0-3.102-0.549-4.005-1.454c-1.647-1.647-1.84-4.457-1.84-6.944c0-2.486,0.192-5.264,1.84-6.912
		c0.903-0.904,2.326-1.453,3.972-1.453c1.745,0,3.102,0.42,4.296,1.841v-8.268h3.295v22.996H178.319z M174.863,31.956
		c-2.971,0-3.423,2.519-3.423,5.426s0.452,5.458,3.423,5.458c2.972,0,3.391-2.551,3.391-5.458S177.835,31.956,174.863,31.956"/>
	<path clip-path="url(#SVGID_2_)" fill="#FFFFFF" d="M185.486,22.59h3.487v3.488h-3.487V22.59z M185.583,29.692h3.294v15.893h-3.294
		V29.692z"/>
	<path clip-path="url(#SVGID_2_)" fill="#FFFFFF" d="M201.421,45.585v-1.486c-1.195,1.195-2.326,1.681-4.36,1.681
		s-3.392-0.485-4.393-1.486c-0.84-0.872-1.292-2.132-1.292-3.521c0-2.745,1.906-4.716,5.652-4.716h4.327v-1.162
		c0-2.067-1.033-3.068-3.585-3.068c-1.809,0-2.681,0.42-3.585,1.583l-2.164-2.035c1.551-1.809,3.165-2.358,5.878-2.358
		c4.49,0,6.75,1.906,6.75,5.62v10.949H201.421z M201.355,38.35h-3.843c-1.938,0-2.938,0.872-2.938,2.358
		c0,1.485,0.936,2.325,3.003,2.325c1.26,0,2.195-0.097,3.068-0.937c0.484-0.484,0.71-1.26,0.71-2.423V38.35z"/>
	<path clip-path="url(#SVGID_2_)" fill="#0F9EDA" d="M37.44,32.186V60.19c5.234-0.354,10.09-2.085,14.207-4.837l-0.001-31.805
		L37.44,32.186z"/>
	<path clip-path="url(#SVGID_2_)" fill="#0F9EDA" d="M64.652,31.047c0-16.134-13.08-29.214-29.214-29.214
		c-16.134,0-29.214,13.08-29.214,29.214c0,8.288,3.452,15.769,8.996,21.085l-0.001-35.729l20.217,12.294l20.221-12.294l-0.003,35.73
		C61.199,46.818,64.652,39.335,64.652,31.047"/>
	<path clip-path="url(#SVGID_2_)" fill="#0F9EDA" d="M19.227,23.585l-0.001,31.766c4.117,2.752,8.973,4.484,14.207,4.84V32.223
		L19.227,23.585z"/>
	<path clip-path="url(#SVGID_2_)" fill="#FFFFFF" d="M35.437,28.698L15.22,16.404v35.729c1.237,1.186,2.577,2.264,4.007,3.219
		V23.585l14.207,8.638v27.968c0.662,0.045,1.33,0.07,2.005,0.07c0.672,0,1.34-0.025,2.001-0.07V32.186l14.206-8.637l0.001,31.805
		c1.43-0.956,2.771-2.034,4.008-3.221l0.003-35.729L35.437,28.698z"/>
</g>
</svg>
